<?xml version="1.0" encoding="utf-8"?>
<!-- Generator: Adobe Illustrator 21.0.0, SVG Export Plug-In . SVG Version: 6.00 Build 0)  -->
<svg version="1.1" id="Layer_1" xmlns="http://www.w3.org/2000/svg" xmlns:xlink="http://www.w3.org/1999/xlink" x="0px" y="0px"
	 viewBox="0 0 897 452" style="enable-background:new 0 0 897 452;" xml:space="preserve">
<style type="text/css">
	.st0{fill:none;stroke:#999999;stroke-width:2;stroke-linecap:round;stroke-linejoin:round;}
	.st1{fill:none;stroke:#999999;stroke-width:3;stroke-linecap:round;stroke-linejoin:round;}
	.st2{fill:none;stroke:#999999;stroke-linecap:round;stroke-linejoin:round;}
	.st3{fill:none;stroke:#999999;stroke-width:3.75;stroke-linecap:round;stroke-linejoin:round;}
	.st4{fill:none;stroke:#999999;stroke-width:2.5;stroke-linecap:round;stroke-linejoin:round;}
	.st5{fill:none;stroke:#999999;stroke-width:1.25;stroke-linecap:round;stroke-linejoin:round;}
	.st6{fill:none;stroke:#999999;stroke-width:1.25;}
	.st7{fill:none;stroke:#999999;stroke-width:2.5;}
	.st8{fill:none;stroke:#999999;}
</style>
<g>
	<title>Layer 1</title>
	<g id="layer5">
		<g id="g4625">
			<path id="path4610" class="st0" d="M425.8,319.5c8.5,12.9,12.7,26.2,31.3,32c6.7,2.4,13-1.6,16.4,5.1
				c13.3,17.9,31.6,36.9,48,52.8c6,3.3,9.1,11.9,16.8,11.7c6.7-1.3,15.2,0,19.6-6.3c1.3-8.7-10.1-9.3-14.2-14.7
				c-3.6-4.1-5.7-9.2-8.7-13.7"/>
			<path id="path4623" class="st0" d="M464.4,352.2c13.1-5.5,14-12.4,14-12.4"/>
		</g>
	</g>
	<g id="layer3">
		<path id="path4219" class="st1" d="M649.4,277.7c7.6,15.4,4.5,34.5-5.5,48.1c-9.8,16.7-20.3,34.3-37.1,45
			c-11.4,6.3-23.6,11.6-36.1,15.3c-12.6,2.2-25.5,0.8-38-0.9c-22.5-5.4-38.8-23.6-52-41.5c-7.1-7.5-8.2-17.8-8.8-27.6
			c-0.6-4-1.5-8-3.4-11.7"/>
		<path id="path4318" class="st2" d="M524.9,337.1c4.2-11.1,13.2-20.4,24.7-23.8c15.6-4.9,29.2-15.6,45.8-17
			c14-2.2,28.3-3.4,41.8-7.9c4.5-1.2,9-2.8,12.7-5.6"/>
		<path id="path4320" class="st2" d="M519.9,335.6c4.3-11.4,10.5-23.7,22.5-28.5c5.6-2.5,11.3-5.4,15.2-10.3
			c9.3-7.2,20.9-10.8,32.2-13.4c13.6-1.2,26.3-7.3,40-7.7"/>
		<path id="path4322" class="st2" d="M555.7,305.6c9.5-5.5,19.2-12.8,30.8-11.7c13.8-1.8,26-10.6,40.2-10.7c5.9-0.9,11.8-1.9,17.6-3
			"/>
		<path id="path4324" class="st2" d="M514.9,336c3.3-10.3,4.9-22.7,15-29c7.1-4.1,15.4-5.7,21.8-11"/>
		<path id="path4326" class="st2" d="M510.3,336.4c2.8-11.9,3.6-26.1,14.3-34c7.4-6.1,15.9-10.5,24-15.6"/>
		<path id="path4328" class="st2" d="M539.6,297.1c21.3-9.1,42-21.5,65.5-23.3c1.4-0.2,2.7-0.4,4.1-0.6"/>
		<path id="path4330" class="st2" d="M531.7,333.1c6.2-6.9,14.1-11.8,22.6-15.2c10-4.6,20.8-7.9,30.2-13.8
			c16.5-6.7,35.2-1.9,51.6-9.2c4.8-1.9,9.4-4.2,14.2-6.1"/>
		<path id="path4332" class="st2" d="M529.2,338.9c10.1-6,20.4-11.8,31.9-14.5c13-5.3,24.2-15.2,38.7-16.3c11.6-2.7,23.6-3.1,35.3-5
			c5.9-1.8,11.7-4,17-7.1"/>
		<path id="path4334" class="st2" d="M540.7,338.5c22.9-4.1,42-18.9,64.2-25.3c13.7-2.7,28.6-0.9,41-8.3c1.4-0.6,2.7-1.2,4.1-1.8"/>
		<path id="path4336" class="st2" d="M549.6,340.3c18.6-1.8,35.1-13.5,54.2-12c8.6-0.3,16.5,3.7,24.5,5.7c2.2,0.1,4.4,0.2,6.6,0.3"
			/>
		<path id="path4338" class="st2" d="M582.4,327.8c13.1-6.8,27.3-12.7,42.3-12.1c8.4-0.9,17.1-1.8,24.5-6.1"/>
		<path id="path4340" class="st2" d="M599.9,326.4c14.4-4.9,29.5-6.8,44.6-7.5"/>
		<path id="path4342" class="st2" d="M616.4,327.4c7-0.5,14.1-1.5,21.1-0.4"/>
		<path id="path4344" class="st2" d="M518.5,341c11.2,7.6,23.3,15.6,37.4,15.5c12.9-0.4,25.8-1.7,38.5-4.4
			c9.2-1.8,18.6-1.2,27.3,2.1"/>
		<path id="path4346" class="st2" d="M532.1,343.1c20.3,8.3,43.3,8.4,64.2,2.3c9.2-1.9,18.4,0.6,27.6,1.6"/>
		<path id="path4348" class="st2" d="M552.4,342.8c10.5,0.2,21.4,1.4,31.4-2.5c15.1-2.4,30.7-2.1,45.7,0.3"/>
		<path id="path4350" class="st2" d="M513.5,342.8c9.9,9.1,21.7,18.1,35.7,18.3c9.4,2.1,19.5,3.7,28.6-0.2c11.2-2.3,23-2,34.2,0.2
			l1.2,0.3l1.3,0.3"/>
		<path id="path4352" class="st2" d="M507.4,344.6c8.3,7.6,17.3,14.6,28.2,18c11.6,4,23.7,7.2,36.1,6.9c8.8,0.2,17.6,0,26.4,0.1"/>
		<path id="path4354" class="st2" d="M503.5,346c7.3,7,14.5,14.8,24.2,18.6c17.2,9.5,37.2,12.3,56.6,12.3l1.4,0.1l1.4,0.1"/>
		<path id="path4356" class="st2" d="M497.4,347.1c9.4,8.8,18.4,18.5,30.1,24.3c14.6,8.4,31.9,10.5,48.4,10.7"/>
		<path id="path4358" class="st2" d="M491.7,348.5c11.9,12.8,24.7,26.1,42,31.3c7.9,2.8,16.1,4.2,24.1,6.6"/>
		<path id="path4360" class="st2" d="M505.7,339.9c0.6-13.1,1.4-27.4,10.6-37.6c2.3-2.7,4.9-5.1,7.3-7.7"/>
		<path id="path4362" class="st2" d="M498.9,341.4c2-13.7,3.9-28.4,12.1-40"/>
		<path id="path4364" class="st2" d="M491,340.6c3.8-12.7,5.3-27.1,14.6-37.1"/>
		<path id="path4366" class="st2" d="M484.2,336.4c2.1-12.4,9.4-22.9,16.1-33.2"/>
		<path id="path4368" class="st2" d="M478.9,328.5c0.9-9.8,8-17.4,13.9-24.6"/>
		<path id="path4370" class="st2" d="M473.8,317.9c3.8-5,7.6-10,11.4-15"/>
	</g>
	<g id="layer1">
		<path id="path2453" class="st3" d="M267.6,282.7c-15.5-5.7-28.8-16.2-38.9-29.5c-6.9-7.8-16-14.2-17.5-25.2
			c-2-6.3-6.1-14.7-3.7-19.3c-12.3-6.3-6.5-22.3-3.7-32.5c4.9-8.9-5.6-18.1,0.6-26.4c8.7-3.4,0.9-12.2,6.3-18.5
			c4-6.5,10.4-13,18.5-13.8c-0.8-10.3,9.1-15.7,13.1-24.2c8.6-7.5,16-17.2,28-18.9c10.2-5.9,22.3-7.1,31.9-14.3
			c9.3-6.4,19.5-10.2,30.7-11.8c14.9-2.9,29.6-6.4,43.3-13c24.7-4.1,50.1-9.3,75.2-6.2c10.3,3.8,20.6-3.6,31.3-2.8
			c14.9-1.2,29.5,4.3,44.2,6c12.3,3.8,24.8,8.2,36.5,13.3c5.8,7.5,16.9,4.7,23.1,12.1c9.1,7.4,21.7,12.6,26.5,23.6
			c0.5,7,10,9.8,14.5,14.7c12,7.7,20.1,19.9,28.3,31.2c1.8,6.2,5.5,13.8,3.5,18.9c11.5,10.1,16.6,25,24.9,37.5
			c1.5,8.4,7.7,16.7,5.6,25.3c6.2,4.7,6.8,13.9,9,20.9c-1.2,10.1-0.1,21.1-7.7,29.1c-3.8,8-9.9,13.8-17.9,17.8
			c-7.6,4.6-17.4,3.8-25.5,0.7c-19.9-6-40.7-5.9-61-9.3c-11.1,4.7-20.9,12-32.9,14.5c-11.2,3.6-22.9,9.5-34.8,5.7
			c0.3,10.6-12.3,10-19.9,11.4c-14.5,2.9-29.4,3.5-43.8,5.3c-16,8.7-33.2,15.7-48,26.2c-6.3,7.8-16.1,12.5-26.1,10
			c-11-0.8-19.7-9.4-29.8-13.3c-8.6-5.5-20.2-2-28.1-9.5c-6.5-3.1-11.1-9.8-14.6-15.6c-4-5.4,5.3-17.7-2.4-17.7
			C293.5,284.3,284.6,285.5,267.6,282.7z"/>
		<path id="path3230" class="st4" d="M328.7,303.9c19.4-6.9,24.7-29.4,40.8-40.5c12-8.2,25-21.5,40.9-15.4
			c20.4,6.8,42.6-0.8,58.5-14.1c11.5-10.2,26.7-15.5,42-13.3c17.8,4.7,21.8-12.8,27.3-25.2c6.9-13.5,23.2-18.6,26.8-34.4
			c8.9-13.8,14.5-29.4,17.2-45.5c0.3-11.9,8-20.9,15.5-29.4c1.1-1.6,2.1-3.2,2.8-5"/>
		<path id="path3235" class="st5" d="M367.1,330.2c10.7-7.4,20.5-16.2,27.8-27c6.3-5.7,15.4-4,23.1-5.9c7.2-0.2,13.8-3.1,19.6-7.1
			c5.2-4.2,10.9,0.6,15.6,3.2c5.2,3.4,10.3,7.1,15.9,10"/>
		<path id="path3250" class="st3" d="M309,285.2c8.8-20.3,17.6-41.4,36.8-54.2c19.9-15.4,43.3-33.8,69.9-31.4
			c26,9.4,30.5-22.4,49.1-31.5c16.2-9.2,41.2,2.6,51.7-17.9c8.9-17.6,11.6-15.7,16.3-21.4"/>
		<path id="path3255" class="st4" d="M448.9,182.7c-5.3-20-12.9-32.6-8.1-53.4c1.8-10,13.3-30.3,21.2-36.6
			c17.2-26.6,17.1-20.4,41-27.5"/>
		<path id="path3264" class="st5" d="M575.7,137.5c-6-21.3-27.7-15.7-35.8-36c-5.5-8.7-10.8-34.6-16.1-43.4
			c-10.7-5.2-19.5-15.4-20.7-27.6c-0.2-0.8-0.5-1.6-0.7-2.4"/>
		<path id="path3278" class="st5" d="M590.3,157c3.2,4.7,6.7,9.1,9.6,14c1.4,12.9,5.3,26.4,1,39.2c-2.8,9.3-6.2,18.7-5.3,28.5
			c-3.1,5.3,0.5,13.2,6.7,13.9c5.4,2.6,12.9,3.3,17.3-1.7c6.7-5.7,15.3-10,24.3-8.9c5.5-0.3,10.9-5.4,9.6-11.2
			c-0.1-1.6-0.5-3.1-1.1-4.6"/>
		<path id="path3306" class="st4" d="M619.6,216.1c13.7-2.9,27.5-6.1,40.9-10.1c3.7,0.9,8.1,0.6,10.7,3.8c4.4,3.5,8.7,7.2,11.7,12
			c5.1,6.2,8.9,13.4,12.4,20.6l0.3,0.5l0.3,0.5"/>
		<path id="path3308" class="st5" d="M659.5,205.4c2-6.8,5.7-14.2,2.8-21.3c-3.5-9.5-11.1-16.6-15.6-25.4c-1.8-4.6-3.8-9.7-8.3-12.2
			c-4.3-3.1-9.8-3.5-14.9-4.1c-8.2-2.3-11.9-10.8-17-16.8"/>
		<path id="path3329" class="st5" d="M575.2,247.4c-6.8,1.7-13.4,4.4-20.4,5.3c-10.1,1.1-20.2,1.8-30.3,1.7c-3.4,0-6.4-1.9-8.5-4.3
			c-3.4-3.7-6.2-8-9.5-11.8c-0.8-1-1.7-2-2.5-3"/>
		<path id="path3335" class="st5" d="M510.5,283.7c-9.7-11.2-24.7-16.9-31.8-30.5c-4.3-6.2-6.3-14-5.6-21.5"/>
		<path id="path3337" class="st5" d="M474.1,277.7c5.7-3,13-4.2,16.7-10.1"/>
		<path id="path3339" class="st5" d="M555.5,200.4c11.3,3.1,25.8,12.5,15.7,25.3c-1.1,2.2-2.4,4.2-4.1,6"/>
		<path id="path3341" class="st5" d="M573.6,210.5c4.5-2,9.1-4,13.6-6.1"/>
		<path id="path3343" class="st5" d="M601.4,185.7c-6.8,2.6-13.6,5.5-20.2,8.6"/>
		<path id="path3347" class="st5" d="M582.7,142.8c10.7-10.3,23.1-18.5,35.6-26.3c2.6-4.3,2.6-9.5,4.3-14.1"/>
		<path id="path3349" class="st5" d="M653.4,274.1c12.7-7.9,21.8-22.6,18.7-37.8c-0.5-3.8-1.5-7.6-3-11.2"/>
		<path id="path3351" class="st5" d="M531.7,215c4.2,3.6,13.1,5.3,11.6,12.6"/>
		<path id="path3353" class="st5" d="M543.3,222.1c2.2-1,4.4-2,6.6-3"/>
		<path id="path3355" class="st5" d="M422.1,284.2c-9.7-3.4-20.3-13.7-15.2-24.7"/>
		<path id="path3357" class="st5" d="M546.4,283.2l-7.1-8.1"/>
		<path id="path3345" class="st5" d="M640.8,190.3c0-9.4-0.2-32.7-15.2-26.8c-10.7,4.9-12.2,20.3-21.2,21.7"/>
		<path id="path3361" class="st5" d="M643.3,148.9l1.5-13.6l-3.5-12.6l-2.5-10.1"/>
		<path id="path3363" class="st5" d="M664.6,188.3c3.4-2.4,6.7-4.7,10.1-7.1"/>
		<path id="path3572" class="st6" d="M309,216.1c-5.6-2.4-11.6-5.9-13.8-12c-2.4-5-2.1-12.1-7.6-15c-3.8-4-11-4.8-12.5-10.8
			c-0.3-6.4-1.4-13.7-7.2-17.6c-4.4-3.1-7.6-8.9-13.6-8.6c-5.4,0.1-10.6,6.1-15.8,3.2c-6.1-4.1-8.9-11.2-12.2-17.4
			c-2.4-5.3-3-12,0.5-17c0.5-0.9,1-1.8,1.4-2.7"/>
		<path id="path3702" class="st6" d="M269.1,241.8c-3.2-3.9-6.4-7.7-9.6-11.6c-0.7-3-1.3-6.1-2-9.1c1.2-6.1,3.3-12.2,7.1-17.2
			c1-2.4-0.6-5.7-3.3-5.9c-2.5,0.5-5.3,1.7-7.8,0.4c-5.1-1.2-10-3.9-12.8-8.3c-0.4-0.5-0.9-0.9-1.4-1.4"/>
		<path id="path3762" class="st6" d="M249.9,173.6c-4-0.7-8.1-1.3-12.1-2c-3,1.3-6.1,2.7-9.1,4c-1.2,3-4,5.8-3.2,9.4
			c0.6,6.6,1.3,13.7,5.7,19c3.9,4.3,6.8,9.4,9.1,14.7c1.5,2.6,1.9,5.7,1.1,8.6c0,0.3,0,0.6,0,0.9"/>
		<path id="path3826" class="st6" d="M301.4,70.6c-3.6,2.9-7.3,6.5-12.2,6.6c-6.7,1.5-12.4,5.8-17.4,10.4c-6,3.6-13.6,2.2-19.8,5.3
			c-4.5,2.8-8.4,8.2-6.6,13.7c1.2,3.2,4.7,5,5.2,8.6c0.7,3.4,2.7,6.6,6,7.9c0.5,0.3,0.9,0.6,1.3,1.1"/>
		<path id="path3565" class="st6" d="M376.7,91.3c2.7-2.7,5.5-5.4,8.1-8.2c2.8-5.7,5.6-11.5,9.2-16.8c1.2-2.1,2.5-4.2,4.5-5.6
			c2.6-2.1,5.3-4.2,7.9-6.4"/>
		<path id="path3689" class="st6" d="M274.6,229.2c12.2-1.8,24.5-3.6,36.8-4.2c2.5-0.1,5-0.1,7.2-1.4c2.5-1,5-2,7.5-3"/>
		<path id="path4136" class="st6" d="M421.6,155.4L421.6,155.4c2,25.8,3.5,26.8,3.5,26.8"/>
		<path id="path4138" class="st6" d="M370.1,131.2c9.1,19.2,4,24.2,4,24.2"/>
		<path id="path4140" class="st6" d="M484.2,82.2c17.2,14.6,13.1,30.8,13.1,30.8"/>
		<path id="path4142" class="st6" d="M472.7,131c2,24.6,33.5,28.5,33.5,28.5"/>
		<path id="path4144" class="st6" d="M254.9,268.1c15.2-17.2,40.4-1,40.4-1"/>
		<path id="path3419" class="st6" d="M406,246.9c-8.5-8-9.8-21.7-4.5-31.8"/>
		<path id="path3421" class="st6" d="M434.7,200.4c-2.9,9.2-8.4,17.5-10.1,27c-1.1,2-3.1,3.1-4.5,4.8"/>
		<path id="path3423" class="st6" d="M474.6,194.8c7.4,1.5,15,4.3,22.6,2.5c7.6,1.1,9.5-8.1,12.3-13.2"/>
		<path id="path3425" class="st6" d="M513,170.6c7.9,1.7,16.3,4,24.2,0.9c6.6-0.3,12.3,3.4,18.2,5.6"/>
		<path id="path3427" class="st6" d="M545.9,89.8c3.9-0.3,7.7-0.7,11.6-1c5.6-4,11.3-7.9,17.2-11.6"/>
		<path id="path3429" class="st6" d="M595.9,81.7c-6.9-7.9-17.1-11.4-26.8-14.7c-7.4-3.1-16.3-4.2-23.5-0.2
			c-2.8,1.4-5.4,3.1-8.3,4.2"/>
		<path id="path3431" class="st6" d="M556,64c-1.2-3.3,0.9-7.3,4.2-8.3c2.6-1.8,4.4-4.4,6.9-6.3"/>
		<path id="path3433" class="st6" d="M476.7,32.7c7.5,1.8,12.5,15.3,1.6,15.8c-9.2,1.6-18.7,3-26.6,8.5c-6.3,4-15.4,9.1-13.9,17.9
			c4.4,6.3,0.7,12.4-6.4,13.8c-7.1,5.4-9.7,14.4-11.8,22.8c-3.7,7.3-6.5,16.4-13.7,20.9c-9.8,3.8-7.5,14.9-4.6,22.3
			c0.3,9.6-10.1,12.6-14.1,19.7c-1.6,8-7.9,12.2-13.6,17c-6.6,4.9-1.2,12.1,3.8,15.5c0.8,0.6,1.6,1.1,2.4,1.6"/>
		<path id="path3438" class="st7" d="M440.3,33.7C429.7,35.5,425.8,47,424,56.2c-6.4,6.5-8.8,16-8.8,24.1
			c-5.2,5.8-16.2,10.2-13.5,19.8c1.5,11.9-14.1,11.5-22.1,13.2c-8.5-0.1-20.3-2.8-24.9,6.6c-4.7,9.7,0,20.6-1.2,30.9
			c-1.7,15.2-11.5,28.2-13,43.6c-1.5,10.9-0.7,21.9,0.8,32.8"/>
		<path id="path3446" class="st6" d="M334.2,204.4c-1.3-10.8-3.5-21.9-1.1-32.7c0.7-6.2,0.1-12.4-0.9-18.5c-1.4-4.1-4.5-7.3-6.6-11"
			/>
		<path id="path3490" class="st6" d="M402.9,36.8c-0.5,4.3-5.4,5.5-9.1,5.8c-10.1,1.1-19.3,5.5-29.1,8c-6.7,2.4-13,5.9-19.4,8.9
			c-3.2,5.1-6.4,10.1-9.6,15.2c-0.1,4.2,0.8,9.7,5.5,11.2c4.7,2,9.2,4.3,13.9,6.4c5,4.4,7.2,10.8,10.7,16.3c0.8,1.5,1.5,3,2.3,4.4"
			/>
		<path id="path3502" class="st6" d="M352.4,123.1c-3.4-2.2-7.1-4.6-11.3-4.2c-4.1-0.5-8.1,0.5-11.9,2.2c-5,1.6-10,3.5-14.3,6.6
			c-3.1,1.7-5.7,4.1-8,6.8c-2.4,2.4-4.7,5-5.7,8.3c-0.9,2.5-2.7,4.9-2.2,7.7c0.1,3.7,0.1,7.7,2.1,11c1.1,2.7,2.2,5.4,3.4,8.1"/>
		<path id="path3509" class="st6" d="M297.4,149.9c-4.9,0.9-11.3-1.4-12.4-6.8c-2.9-5.1-1.7-12.5-7.1-16.2c-6-1.2-9.9-7.9-8.3-13.7
			c1.2-7.3,8.3-11.1,14-14.8c9.4-5.7,20-9.2,28.7-15.9c4.6-4-0.2-10.2,2-14.9c3.4-5.1,10-5.4,15.1-7.7c5.3-2,11.5-3.3,16.7-0.5
			l0.8,0.3"/>
		<path id="path3522" class="st6" d="M323.5,80.5c-0.7,4.6-7.1,8.4-8.4,14.5c2.3,10.5-1.9,11.1-12.3,11.1c-4,1.1-5.9,5.2-7.1,8.8
			c-1.3,3.8-1.8,7.9-2.3,11.8"/>
		<path id="path3580" class="st8" d="M350.9,89.3c0.2-4.7,1.3-9.4,5-12.6c2.3-2.4,3.9-5.4,4.1-8.8l0-0.2l0,0"/>
	</g>
</g>
</svg>
