<!--?xml version="1.0" encoding="UTF-8" standalone="no"?-->
<svg width="897px" height="452px" viewBox="0 0 897 452" version="1.1" xmlns="http://www.w3.org/2000/svg" xmlns:xlink="http://www.w3.org/1999/xlink" xmlns:sketch="http://www.bohemiancoding.com/sketch/ns">
    <!-- Generator: Sketch 3.0.4 (8054) - http://www.bohemiancoding.com/sketch -->
    <title>IPAD 2</title>
    <desc>Created with Sketch.</desc>
    <defs></defs>
    <g id="Page-1" stroke="none" stroke-width="1" fill="none" fill-rule="evenodd" sketch:type="MSPage">
        <g id="iPad" sketch:type="MSLayerGroup" transform="translate(681.000000, 55.000000)" stroke="#7E89A3">
            <path d="M202.986,317 L12.097,317 C5.462,317 0.083,311.623 0.083,304.99 L0.083,12.093 C0.083,5.46 5.461,0.083 12.097,0.083 L202.986,0.083 C209.622,0.083 215,5.46 215,12.093 L215,304.99 C215,311.623 209.622,317 202.986,317 Z" id="bezel" stroke-width="2" fill="#FDFDFD" sketch:type="MSShapeGroup" class="vQQUeIOi_0"></path>
            <path d="M202.986,317 L12.097,317 C5.462,317 0.083,311.623 0.083,304.99 L0.083,12.093 C0.083,5.46 5.461,0.083 12.097,0.083 L202.986,0.083 C209.622,0.083 215,5.46 215,12.093 L215,304.99 C215,311.623 209.622,317 202.986,317 Z" id="bezel-2" stroke-width="2" fill="#FDFDFD" sketch:type="MSShapeGroup" class="vQQUeIOi_1"></path>
            <path id="screen" fill="#FFFFFF" sketch:type="MSShapeGroup" width="181.999" height="252.917" d="M17 32 L198.999 32 L198.999 284.91700000000003 L17 284.91700000000003 Z" class="vQQUeIOi_2"></path>
            <path id="lock" sketch:type="MSShapeGroup" d="M100,300.021A8.021,8.021 0,1,1 116.042,300.021A8.021,8.021 0,1,1 100,300.021" class="vQQUeIOi_3"></path>
            <path id="camera" sketch:type="MSShapeGroup" d="M104,16.99A2.99,2.99 0,1,1 109.97999999999999,16.99A2.99,2.99 0,1,1 104,16.99" class="vQQUeIOi_4"></path>
        </g>
        <g id="Mac" sketch:type="MSLayerGroup" transform="translate(1.000000, 1.000000)" stroke="#8492A5">
            <path d="M594,0 L98,0 C84.50415,0 73,11.0738184 73,24.7901127 L73,351.027995 L619,351.027985 L619,24.7901127 C618.999971,11.0728209 607.537479,0 594,0 Z" id="bezel" stroke-width="2" fill="#FEFEFE" sketch:type="MSShapeGroup" class="vQQUeIOi_5"></path>
            <path id="webcam" stroke-width="2" sketch:type="MSShapeGroup" d="M343,19A4,4 0,1,1 351,19A4,4 0,1,1 343,19" class="vQQUeIOi_6"></path>
            <g id="bottom" transform="translate(0.000000, 351.000000)" sketch:type="MSShapeGroup">
                <path d="M640.812,31.01 L51.288,31.01 C20.641,31.01 0,20.494 0,16.022 L0,2.428 C0,1.084 1.335,0 2.995,0 L689.104,0 C690.766,0 692.103,1.084 692.103,2.428 L692.103,16.557 C692.096,20.092 676.112,31.01 640.812,31.01 Z" id="Shape" stroke-width="2" fill="#FDFDFD" class="vQQUeIOi_7"></path>
                <path d="M0.5,14.5 L690.242676,14.5" id="Line" stroke-linecap="square" class="vQQUeIOi_8"></path>
            </g>
            <path id="screen" fill="#FFFFFF" sketch:type="MSShapeGroup" width="501.073853" height="292.009" d="M95 39 L596.073853 39 L596.073853 331.009 L95 331.009 Z" class="vQQUeIOi_9"></path>
            <path d="M421,352 L421,355.087 C421,357.288 416.666719,357.952714 413.386719,357.952714 L278.815286,357.952714 C275.364286,357.952714 271,357.289 271,355.087 L271,352" id="touchpad" fill="#FFFFFF" sketch:type="MSShapeGroup" class="vQQUeIOi_10"></path>
        </g>
        <g id="iPhone" sketch:type="MSLayerGroup" transform="translate(576.000000, 177.000000)" stroke="#7E89A3">
            <path d="M130,257.964 C130,266.797 122.809,273.956 113.938,273.956 L16.063,273.956 C7.192,273.956 0.001,266.797 0.001,257.964 L0.001,16.073 C0.001,7.24 7.192,0.081 16.063,0.081 L113.938,0.081 C122.809,0.081 130,7.24 130,16.073 L130,257.964 L130,257.964 Z" id="bezel" stroke-width="2" fill="#FDFDFD" sketch:type="MSShapeGroup" class="vQQUeIOi_11"></path>
            <path id="screen" fill="#FFFFFF" sketch:type="MSShapeGroup" width="111.93" height="199.084" d="M9 36 L120.93 36 L120.93 235.084 L9 235.084 Z" class="vQQUeIOi_12"></path>
            <path d="M77,25.746 C77,26.381 76.561,26.893 76.02,26.893 L55.918,26.893 C55.376,26.893 54.938,26.38 54.938,25.746 L54.938,23.166 C54.938,22.531 55.377,22.019 55.918,22.019 L76.02,22.019 C76.561,22.019 77,22.532 77,23.166 L77,25.746 L77,25.746 Z" id="speaker" sketch:type="MSShapeGroup" class="vQQUeIOi_13"></path>
            <path id="camera" sketch:type="MSShapeGroup" d="M63,12A3,3 0,1,1 69,12A3,3 0,1,1 63,12" class="vQQUeIOi_14"></path>
            <path id="lock" sketch:type="MSShapeGroup" d="M55.00000000000001,254.001A10.04,10.001 0,1,1 75.08000000000001,254.001A10.04,10.001 0,1,1 55.00000000000001,254.001" class="vQQUeIOi_15"></path>
        </g>
    </g>
<style>.vQQUeIOi_0{stroke-dasharray:1044 1046;stroke-dashoffset:1045;animation:vQQUeIOi_draw 1333ms linear 0ms forwards;}.vQQUeIOi_1{stroke-dasharray:1044 1046;stroke-dashoffset:1045;animation:vQQUeIOi_draw 1333ms linear 44ms forwards;}.vQQUeIOi_2{stroke-dasharray:870 872;stroke-dashoffset:871;animation:vQQUeIOi_draw 1333ms linear 88ms forwards;}.vQQUeIOi_3{stroke-dasharray:51 53;stroke-dashoffset:52;animation:vQQUeIOi_draw 1333ms linear 133ms forwards;}.vQQUeIOi_4{stroke-dasharray:19 21;stroke-dashoffset:20;animation:vQQUeIOi_draw 1333ms linear 177ms forwards;}.vQQUeIOi_5{stroke-dasharray:1773 1775;stroke-dashoffset:1774;animation:vQQUeIOi_draw 1333ms linear 222ms forwards;}.vQQUeIOi_6{stroke-dasharray:26 28;stroke-dashoffset:27;animation:vQQUeIOi_draw 1333ms linear 266ms forwards;}.vQQUeIOi_7{stroke-dasharray:1423 1425;stroke-dashoffset:1424;animation:vQQUeIOi_draw 1333ms linear 311ms forwards;}.vQQUeIOi_8{stroke-dasharray:690 692;stroke-dashoffset:691;animation:vQQUeIOi_draw 1333ms linear 355ms forwards;}.vQQUeIOi_9{stroke-dasharray:1587 1589;stroke-dashoffset:1588;animation:vQQUeIOi_draw 1333ms linear 400ms forwards;}.vQQUeIOi_10{stroke-dasharray:159 161;stroke-dashoffset:160;animation:vQQUeIOi_draw 1333ms linear 444ms forwards;}.vQQUeIOi_11{stroke-dasharray:781 783;stroke-dashoffset:782;animation:vQQUeIOi_draw 1333ms linear 488ms forwards;}.vQQUeIOi_12{stroke-dasharray:623 625;stroke-dashoffset:624;animation:vQQUeIOi_draw 1333ms linear 533ms forwards;}.vQQUeIOi_13{stroke-dasharray:53 55;stroke-dashoffset:54;animation:vQQUeIOi_draw 1333ms linear 577ms forwards;}.vQQUeIOi_14{stroke-dasharray:19 21;stroke-dashoffset:20;animation:vQQUeIOi_draw 1333ms linear 622ms forwards;}.vQQUeIOi_15{stroke-dasharray:63 65;stroke-dashoffset:64;animation:vQQUeIOi_draw 1333ms linear 666ms forwards;}@keyframes vQQUeIOi_draw{100%{stroke-dashoffset:0;}}@keyframes vQQUeIOi_fade{0%{stroke-opacity:1;}93.54838709677419%{stroke-opacity:1;}100%{stroke-opacity:0;}}</style></svg>
